# xmcd
# 
# Track frame offsets:
#     150
#     16687
#     33220
#     46900
#     69463
#     79205
#     93968
#     109414
#     125441
#     140507
#     155729
#     171124
#     183931
#     198226
#     211170
# 
# Disc length: 2997
# 
# Revision: 0
# Processed by: cddbd v1.5.2PL0 Copyright (c) Steve Scherf et al.
# Submitted via: fre:ac v1.0.31
# 
DISCID=c30bb30f
DTITLE=Mauricio Penagos - Grupo Gaviota - Costa Rica Pura Vida
DYEAR=2000
DGENRE=Folklore
TTITLE0=Amor de Temporada
TTITLE1=Caña dulce
TTITLE2=Soy tico
TTITLE3=Luna liberiana
TTITLE4=Caballito nicoyano
TTITLE5=De la caña se hace el guaro
TTITLE6=La guaria morada
TTITLE7=Aquel arroyito
TTITLE8=Linda Costa Rica
TTITLE9=Tambito
TTITLE10=Pampa
TTITLE11=He guardado
TTITLE12=Espíritu guanacasteco
TTITLE13=El torito
TTITLE14=Himno al guaro
EXTD=
EXTT0=
EXTT1=
EXTT2=
EXTT3=
EXTT4=
EXTT5=
EXTT6=
EXTT7=
EXTT8=
EXTT9=
EXTT10=
EXTT11=
EXTT12=
EXTT13=
EXTT14=
PLAYORDER=
